# xmcd
#
# Track frame offsets:
#	187
#	14575
#	29467
#	44497
#	62192
#	78570
#	94757
#	109770
#	128172
#	142685
#
# Disc length: 2142 seconds
# Revision: 6
# Processed by: cddbd v1.5.2PL0 Copyright (c) Steve Scherf et al.
# Submitted via: dBpowerAMP V12.0
#
DISCID=84085c0a
DTITLE=Vince Gill - The Best Of Vince Gill
DYEAR=1989
DGENRE=Country
TTITLE0=Turn Me Loose
TTITLE1=Oh Carolina
TTITLE2=Victim Of Life's Circumstances
TTITLE3=Lucy Dee
TTITLE4=Oklahoma Borderline
TTITLE5=Cinderella
TTITLE6=Let's Do Something
TTITLE7=The Radio
TTITLE8=I've Been Hearing Things About You
TTITLE9=I Never Knew Lonely
EXTD=
EXTT0=
EXTT1=
EXTT2=
EXTT3=
EXTT4=
EXTT5=
EXTT6=
EXTT7=
EXTT8=
EXTT9=
PLAYORDER=
